{"asset":{"version":"2.0","generator":"Unity 2021.3.1f1 glTFast 4.8.3"},"nodes":[{"name":"Tent (223)","mesh":0,"translation":[139.4766,1.79999876,75.6780853],"rotation":[0,0.991958559,0,0.1265633],"scale":[8.71052551,8.293378,7.626096]}],"buffers":[{"uri":"tent.bin","byteLength":5688}],"bufferViews":[{"buffer":0,"byteLength":360},{"buffer":0,"byteLength":5328,"byteOffset":360,"byteStride":48}],"accessors":[{"bufferView":1,"componentType":5126,"count":111,"type":"VEC3","max":[0.5000036,0.5502806,0.4445945],"min":[-0.50000453,-3.076149,-0.4446001]},{"bufferView":1,"componentType":5126,"count":111,"type":"VEC3","byteOffset":12},{"bufferView":1,"componentType":5126,"count":111,"type":"VEC4","byteOffset":24},{"bufferView":1,"componentType":5126,"count":111,"type":"VEC2","byteOffset":40},{"bufferView":0,"componentType":5123,"count":180,"type":"SCALAR"}],"materials":[{"name":"White","pbrMetallicRoughness":{"metallicFactor":0,"roughnessFactor":0.5},"doubleSided":true}],"meshes":[{"name":"pb_Mesh-240146","primitives":[{"attributes":{"POSITION":0,"NORMAL":1,"TANGENT":2,"TEXCOORD_0":3},"indices":4,"material":0}]}],"scene":0,"scenes":[{"name":"Tent (223)","nodes":[0]}]}